<svg xmlns="http://www.w3.org/2000/svg" width="36" height="36" viewBox="0 0 36 36"><defs><linearGradient id="ddmia" x1="4.39" x2="31.51" y1="32.18" y2="4.82" gradientUnits="userSpaceOnUse"><stop offset="0" stop-color="#f2ab0c"/><stop offset=".51" stop-color="#f20c19"/><stop offset="1" stop-color="#bf17a4"/></linearGradient></defs><g><g><path fill="url(#ddmia)" d="M0 18C0 8.059 8.059 0 18 0s18 8.059 18 18-8.059 18-18 18S0 27.941 0 18z"/></g><g><path fill="#fff" d="M22.807 12.114a1.087 1.087 0 1 0 0 2.174 1.087 1.087 0 0 0 0-2.174zm-1.884 5.89c0 1.61-1.31 2.919-2.919 2.919a2.922 2.922 0 0 1-2.919-2.919c0-1.61 1.31-2.919 2.92-2.919 1.609 0 2.918 1.31 2.918 2.92zm1.718 0a4.643 4.643 0 0 0-4.637-4.638 4.643 4.643 0 0 0-4.637 4.638 4.642 4.642 0 0 0 4.637 4.637 4.642 4.642 0 0 0 4.637-4.637zm-.797-7.286c1.9 0 3.446 1.545 3.446 3.446v7.68a3.45 3.45 0 0 1-3.446 3.446h-7.68a3.45 3.45 0 0 1-3.446-3.446v-7.68c0-1.9 1.546-3.446 3.445-3.446zm5.164 11.126v-7.68A5.17 5.17 0 0 0 21.844 9h-7.68A5.169 5.169 0 0 0 9 14.164v7.68a5.169 5.169 0 0 0 5.163 5.164h7.681a5.17 5.17 0 0 0 5.164-5.164z"/></g></g></svg>