<svg width="903" height="331" viewBox="0 0 903 331" fill="none" xmlns="http://www.w3.org/2000/svg">
<path d="M148.968 0.317749C127.516 2.27351 105.33 9.97432 87.545 21.6478C65.0537 36.4994 47.1462 58.3795 37.3063 83.1321C33.9448 91.6275 34.556 92.2998 46.2295 92.9109L54.297 93.3387L58.2696 85.0268C66.765 67.3026 77.9495 53.4901 92.3732 42.6722C113.092 27.2095 134.972 19.8754 160.458 19.8754C185.211 19.8754 207.458 27.1484 227.076 41.5721C249.934 58.3795 265.336 82.6432 270.959 110.635L272.426 117.969L267.72 118.641C257.758 120.108 246.879 122.736 236.55 126.22C219.926 131.721 207.274 137.893 192.851 147.489C188.511 150.423 184.661 152.867 184.294 152.928C183.989 153.051 182.705 151.645 181.544 149.934C177.449 143.822 168.404 133.187 161.375 126.22C147.929 112.774 132.344 101.529 114.865 92.6053L105.025 87.5937L109.792 82.7043C123.604 68.7084 140.901 61.4354 160.275 61.4354C168.831 61.4354 173.11 62.0465 180.688 64.2468C191.139 67.2415 201.04 73.0477 209.475 81.1763C215.586 87.0436 219.498 92.1775 223.532 99.6339C225.365 103.056 226.893 105.196 227.627 105.318C228.91 105.562 242.478 101.895 243.762 100.978C245.106 99.9395 244.556 96.9447 241.989 91.8719C237.161 82.3376 231.599 74.8812 223.287 66.8748C200.49 44.9947 168.098 36.4994 137.845 44.3224C129.655 46.4615 125.255 48.1728 117.615 52.2066C101.419 60.7631 87.8505 74.3923 79.6608 90.4051C76.2382 97.2503 76.3604 98.5949 80.7609 99.8783C86.506 101.59 97.6294 106.235 105.758 110.329C133.139 124.203 157.219 146.817 173.048 173.403C175.493 177.559 177.816 181.104 178.121 181.348C179.649 182.448 181.483 181.593 185.822 177.803C197.373 167.658 207.886 160.751 222.798 153.417C242.356 143.761 263.625 138.016 284.099 136.793C287.705 136.61 291.128 136.182 291.739 135.877C292.656 135.449 292.778 134.41 292.778 128.787C292.778 111.124 287.827 91.0163 279.271 73.72C259.774 34.2991 222.92 7.46851 179.71 1.29562C171.521 0.0732727 156.669 -0.354553 148.968 0.317749Z" fill="#0D594E"/>
<path d="M12.8592 114.913C4.73055 115.952 2.04138 116.747 1.61356 118.152C-0.342209 125.059 -0.586679 149.811 1.24685 162.279C5.83067 193.816 20.4378 222.358 43.1735 244.177C65.4815 265.629 96.0403 280.42 124.766 283.659C127.944 284.026 128.31 283.964 129.166 282.62C131.122 279.442 132.283 270.152 132.283 257.317C132.283 246.438 132.1 244.238 130.633 237.393C128.555 227.492 126.171 220.585 121.587 211.479C116.637 201.517 111.075 193.877 102.702 185.504C94.1456 176.947 86.6282 171.508 76.1159 166.313C63.6479 160.079 46.7184 155.373 44.3348 157.39C42.9902 158.551 43.3569 162.401 45.5571 169.919C47.1462 175.358 48.3685 177.559 49.8965 177.559C51.6078 177.559 62.3034 181.47 66.9483 183.793C82.5333 191.677 96.407 205.428 104.23 220.891C109.058 230.487 112.114 242.527 112.848 254.445L113.275 261.351L111.503 260.923C102.885 258.845 86.9949 251.817 77.6439 246.072C50.691 229.325 30.7055 201.639 23.2492 170.652C20.8656 160.874 19.5821 150.484 19.5821 141.499V134.287L24.3493 133.798C30.7055 133.187 46.2905 134.41 55.3359 136.304C73.4879 139.971 91.7009 148.344 106.675 159.773C115.965 166.802 128.799 180.859 135.217 191.005C144.201 205.245 150.557 222.358 153.246 239.593C154.835 249.616 154.652 267.035 152.819 277.792C150.496 291.971 150.496 320.879 152.819 327.052C153.43 328.641 154.408 328.886 163.27 329.742C172.743 330.658 173.293 330.23 172.009 322.713C170.726 315.318 170.237 298.205 171.093 290.382C173.537 267.952 180.994 248.455 194.379 229.325C199.574 221.93 214.303 207.201 221.698 202.006C244.189 186.237 268.636 178.17 293.817 178.17H301.334V185.321C301.334 213.985 291.189 242.71 273.526 264.346C269.614 269.174 259.591 279.075 254.702 282.987C245.045 290.81 229.46 299.427 218.031 303.4C215.036 304.439 212.53 305.294 212.347 305.294C211.858 305.294 212.103 296.738 212.775 292.093C215.953 269.052 228.115 249.005 247.367 234.887C252.074 231.464 262.891 225.842 268.575 223.947C273.404 222.358 273.465 222.236 275.971 212.824C279.149 200.906 277.926 200.111 263.808 204.695C228.238 216.368 201.652 246.194 194.256 282.864C192.362 292.093 192.239 312.873 193.951 321.491C194.562 324.485 195.356 327.297 195.723 327.725C196.64 328.825 199.207 328.703 205.991 327.297C246.817 318.74 282.571 292.46 303.107 255.973C311.602 240.877 317.653 222.48 319.975 204.878C321.442 193.327 321.136 171.019 319.303 162.157C318.814 159.835 316.858 159.346 305.185 158.49C288.622 157.268 271.142 159.101 255.068 163.746C222.309 173.158 194.256 193.633 175.31 221.869C173.293 224.864 171.582 227.431 171.521 227.553C171.398 227.614 170.482 224.314 169.381 220.219C162.964 195.833 149.09 172.303 130.755 154.64C109.119 133.798 84.0001 121.086 54.1136 115.769C44.457 114.057 23.1881 113.63 12.8592 114.913Z" fill="#0D594E"/>
<path d="M389 95.5H371.8V127H364V57H371.8V88.5H389V57H396.8V127H389V95.5ZM419.62 88H436.72V95H419.62V119.9H440.62V127H411.82V57H440.62V64.1H419.62V88ZM470.155 56.3C475.422 56.3 479.355 57.8667 481.955 61C484.622 64.1333 485.955 68.4333 485.955 73.9V75.7C485.955 83.2333 483.089 88.0667 477.355 90.2C483.089 92.1333 485.955 96.9333 485.955 104.6V110.1C485.955 115.567 484.622 119.867 481.955 123C479.355 126.133 475.422 127.7 470.155 127.7C464.955 127.7 461.022 126.133 458.355 123C455.755 119.867 454.455 115.567 454.455 110.1V103.3H461.755V110.5C461.755 117.233 464.489 120.6 469.955 120.6C475.422 120.6 478.155 117.033 478.155 109.9V104.4C478.155 97.4667 475.155 94 469.155 94H465.855V87H469.555C472.155 87 474.222 86.1667 475.755 84.5C477.355 82.7667 478.155 80.4 478.155 77.4V74.2C478.155 67 475.422 63.4 469.955 63.4C464.489 63.4 461.755 66.7667 461.755 73.5V78.2H454.555V73.8C454.555 68.2667 455.855 63.9667 458.455 60.9C461.055 57.8333 464.955 56.3 470.155 56.3ZM526.127 112.9H508.427L505.727 127H498.527L511.927 57H523.227L536.627 127H528.827L526.127 112.9ZM517.127 65.8L509.427 106.2H525.027L517.127 65.8ZM549.715 57H565.415C570.748 57 574.615 58.2667 577.015 60.8C579.415 63.3333 580.615 67.2333 580.615 72.5V75.8C580.615 79.6667 579.982 82.7333 578.715 85C577.448 87.2 575.348 88.7667 572.415 89.7C578.682 91.4333 581.815 96.4333 581.815 104.7V110.6C581.815 121.533 576.482 127 565.815 127H549.715V57ZM557.515 86.7H563.515C566.782 86.7 569.148 86.0333 570.615 84.7C572.148 83.3667 572.915 80.9333 572.915 77.4V73.3C572.915 70.1667 572.315 67.8667 571.115 66.4C569.915 64.8667 567.948 64.1 565.215 64.1H557.515V86.7ZM557.515 119.9H565.815C571.348 119.9 574.115 116.733 574.115 110.4V104.2C574.115 100.4 573.348 97.7333 571.815 96.2C570.282 94.6 567.782 93.8 564.315 93.8H557.515V119.9ZM621.875 71.3L614.275 94.7L603.975 127H595.875V57H602.775V109.2L608.975 89.9L620.175 57H628.875V127H621.875V71.3ZM658.893 56.3C664.16 56.3 668.093 57.8667 670.693 61C673.36 64.1333 674.693 68.4333 674.693 73.9V80.2H667.293V73.5C667.293 66.7667 664.56 63.4 659.093 63.4C653.626 63.4 650.893 66.7667 650.893 73.5V110.5C650.893 117.233 653.626 120.6 659.093 120.6C664.56 120.6 667.293 117.233 667.293 110.5V101.4H674.693V110.1C674.693 115.567 673.36 119.867 670.693 123C668.093 126.133 664.16 127.7 658.893 127.7C653.693 127.7 649.76 126.133 647.093 123C644.493 119.867 643.193 115.567 643.193 110.1V73.9C643.193 68.4333 644.493 64.1333 647.093 61C649.76 57.8667 653.693 56.3 658.893 56.3ZM714.781 71.3L707.181 94.7L696.881 127H688.781V57H695.681V109.2L701.881 89.9L713.081 57H721.781V127H714.781V71.3ZM773.599 70.7L762.499 126.9H754.999L743.399 71.2V127H736.599V57H747.499L758.999 112.9L770.099 57H780.999V127H773.599V70.7ZM803.843 84.6H810.743C821.61 84.6 827.043 90.2333 827.043 101.5V109.9C827.043 121.3 821.81 127 811.343 127H796.043V57H803.843V84.6ZM833.543 57H841.243V127H833.543V57ZM803.843 119.9H811.343C814.143 119.9 816.176 119.133 817.443 117.6C818.71 116 819.343 113.567 819.343 110.3V101C819.343 97.6667 818.643 95.2667 817.243 93.8C815.843 92.3333 813.676 91.6 810.743 91.6H803.843V119.9ZM879.166 42.7H883.966C883.966 45.7667 882.999 48.1667 881.066 49.9C879.132 51.6333 876.499 52.5 873.166 52.5C869.832 52.5 867.232 51.6333 865.366 49.9C863.499 48.1667 862.499 45.7667 862.366 42.7H867.266C867.532 46.1 869.499 47.8 873.166 47.8C876.899 47.8 878.899 46.1 879.166 42.7ZM882.266 71.3L875.266 93.3L864.366 127H856.266V57H863.166V109.2L869.666 89L880.566 57H889.266V127H882.266V71.3ZM418 170.2H383.6V296H368V156H433.6V296H418V170.2ZM500.841 267.8H465.441L460.041 296H445.641L472.441 156H495.041L521.841 296H506.241L500.841 267.8ZM482.841 173.6L467.441 254.4H498.641L482.841 173.6ZM534.016 156H564.616C585.549 156 596.016 167.4 596.016 190.2V207C596.016 229.533 585.149 240.8 563.416 240.8H549.616V296H534.016V156ZM549.616 226.8H563.416C569.282 226.8 573.616 225.333 576.416 222.4C579.216 219.467 580.616 214.667 580.616 208V189.4C580.616 182.867 579.349 178.067 576.816 175C574.282 171.8 570.216 170.2 564.616 170.2H549.616V226.8ZM645.234 296H629.634V170.2H603.834V156H671.034V170.2H645.234V296ZM732.648 233H698.248V296H682.648V156H698.248V219H732.648V156H748.248V296H732.648V233ZM779.889 218H814.089V232H779.889V281.8H821.889V296H764.289V156H821.889V170.2H779.889V218ZM836.359 156H866.959C887.893 156 898.359 167.4 898.359 190.2V207C898.359 229.533 887.493 240.8 865.759 240.8H851.959V296H836.359V156ZM851.959 226.8H865.759C871.626 226.8 875.959 225.333 878.759 222.4C881.559 219.467 882.959 214.667 882.959 208V189.4C882.959 182.867 881.693 178.067 879.159 175C876.626 171.8 872.559 170.2 866.959 170.2H851.959V226.8Z" fill="#0D594E"/>
</svg>
