<?xml version="1.0" encoding="UTF-8" standalone="no"?>
<svg
   width="43"
   height="43"
   viewBox="0 0 43 43"
   version="1.1"
   id="svg191"
   sodipodi:docname="logo.svg"
   inkscape:version="1.1.1 (3bf5ae0d25, 2021-09-20)"
   xmlns:inkscape="http://www.inkscape.org/namespaces/inkscape"
   xmlns:sodipodi="http://sodipodi.sourceforge.net/DTD/sodipodi-0.dtd"
   xmlns="http://www.w3.org/2000/svg"
   xmlns:svg="http://www.w3.org/2000/svg">
  <defs
     id="defs195" />
  <sodipodi:namedview
     id="namedview193"
     pagecolor="#ffffff"
     bordercolor="#666666"
     borderopacity="1.0"
     inkscape:pageshadow="2"
     inkscape:pageopacity="0.0"
     inkscape:pagecheckerboard="0"
     showgrid="false"
     width="149px"
     inkscape:zoom="15.646667"
     inkscape:cx="51.768215"
     inkscape:cy="21.506178"
     inkscape:window-width="2560"
     inkscape:window-height="1387"
     inkscape:window-x="-8"
     inkscape:window-y="-8"
     inkscape:window-maximized="1"
     inkscape:current-layer="g187" />
  <g
     id="g189">
    <g
       id="g187">
      <g
         id="g115">
        <g
           id="g113">
          <g
             id="g111">
            <g
               id="g105">
              <path
                 fill="#7ac4ba"
                 d="m 5.079,12.163 c 0.602,0.027 1.21,0.078 1.805,0.154 A 0.378,0.378 0 0 0 7.284,12.08 14.842,14.842 0 0 1 10.65,6.923 14.894,14.894 0 0 1 21.254,2.538 c 4.01,0 7.776,1.558 10.604,4.385 2.366,2.367 3.802,5.3 4.267,8.72 -4.373,0.56 -8.218,2.111 -11.752,4.737 -2.71,-3.947 -6.162,-6.812 -10.549,-8.756 l 0.093,-0.114 a 9.484,9.484 0 0 1 7.345,-3.477 c 1.944,0 3.816,0.59 5.413,1.708 a 9.53,9.53 0 0 1 3.258,3.952 c 0.079,0.177 0.28,0.266 0.463,0.205 a 28,28 0 0 1 1.698,-0.505 0.379,0.379 0 0 0 0.252,-0.51 C 30.494,8.47 26.036,5.504 21.254,5.504 c -4.72,0 -9.023,2.778 -10.963,7.08 a 0.377,0.377 0 0 0 0.233,0.515 c 5.526,1.693 10.252,5.603 12.969,10.727 a 0.377,0.377 0 0 0 0.59,0.1 22.07,22.07 0 0 1 14.324,-5.922 0.377,0.377 0 0 0 0.364,-0.375 17.434,17.434 0 0 0 -4.99,-12.364 C 30.465,1.87 26.016,0 21.254,0 13.841,0 7.204,4.687 4.74,11.661 a 0.375,0.375 0 0 0 0.339,0.502 z"
                 id="path103" />
            </g>
            <g
               id="g109">
              <path
                 fill="#7ac4ba"
                 d="m 42.257,20.778 a 0.377,0.377 0 0 0 -0.319,-0.314 19.716,19.716 0 0 0 -2.809,-0.203 c -6.708,0 -12.807,3.414 -16.314,9.134 L 22.671,29.63 22.613,29.36 C 20.747,20.693 12.956,14.4 4.09,14.4 c -1.183,0 -2.38,0.112 -3.554,0.331 a 0.377,0.377 0 0 0 -0.303,0.313 c -0.8,5.177 0.483,10.291 3.612,14.402 a 19.192,19.192 0 0 0 12.9,7.39 c 0.189,0.023 0.366,-0.1 0.411,-0.286 0.88,-3.668 0.18,-7.56 -1.919,-10.68 A 13.582,13.582 0 0 0 6.21,20.082 0.375,0.375 0 0 0 5.779,20.525 c 0.132,0.686 0.302,1.311 0.536,1.969 0.042,0.12 0.143,0.21 0.267,0.24 5.082,1.22 8.62,5.881 8.412,11.083 l -0.006,0.136 C 7.25,31.94 2.15,24.983 2.562,17.003 c 0.479,-0.04 0.964,-0.06 1.444,-0.06 4.887,0 9.483,2.11 12.609,5.792 3.124,3.677 4.463,8.543 3.675,13.35 -0.371,2.283 -0.384,4.255 -0.039,6.394 0.027,0.162 0.155,0.29 0.318,0.313 0.636,0.093 1.23,0.15 1.872,0.18 l 0.017,10e-4 a 0.378,0.378 0 0 0 0.37,-0.447 c -0.908,-4.848 0.329,-9.798 3.395,-13.583 3.165,-3.906 7.913,-6.146 13.026,-6.146 0.23,0 0.46,0.005 0.691,0.014 0.424,7.876 -4.348,14.692 -11.895,16.992 l -0.003,-0.144 c -0.115,-4.966 3.128,-9.442 7.887,-10.887 a 0.378,0.378 0 0 0 0.244,-0.23 C 36.42,27.865 36.6,27.221 36.74,26.514 a 0.375,0.375 0 0 0 -0.45,-0.44 13.842,13.842 0 0 0 -8.621,5.993 c -1.992,3.1 -2.626,6.8 -1.79,10.414 a 0.377,0.377 0 0 0 0.427,0.288 c 5,-0.785 9.577,-3.579 12.556,-7.665 3.01,-4.127 4.215,-9.215 3.395,-14.326 z"
                 id="path107" />
            </g>
          </g>
        </g>
      </g>
    </g>
  </g>
</svg>
